<?xml version="1.0" encoding="UTF-8"?>
<!-- Generator: Adobe Illustrator 18.0.0, SVG Export Plug-In . SVG Version: 6.00 Build 0)  -->
<!DOCTYPE svg PUBLIC "-//W3C//DTD SVG 1.1//EN" "http://www.w3.org/Graphics/SVG/1.1/DTD/svg11.dtd">
<svg version="1.1" id="Capa_1" xmlns="http://www.w3.org/2000/svg" xmlns:xlink="http://www.w3.org/1999/xlink" x="0px" y="0px" viewBox="0 0 40 40" enable-background="new 0 0 40 40" xml:space="preserve">
<g>
	<path fill="#A5A5A5" d="M40,40H0l1.1-5.8c0-1.7,1.2-1.7,2.6-2.3l6.7-2.7c0.1,0,0.2-0.1,0.3-0.1l0,0l0-0.1l0-0.1   c1.3-0.6,2.4-1.4,2.7-1.9c0.2-0.4,0.5-0.5,0.6-0.4c0,0,0.1,0,0.1,0c0.2-0.6,0.4-1.1,0.6-1.7c0.1-0.2,0.2-0.1,0.3,0.1l-0.1-0.6   l-0.1-1c-0.1-0.1-0.2-0.3-0.3-0.3C14,22.6,14,21.3,13.8,21c-0.2-0.3-0.7-0.4-1.1-1.9c-0.4-1.5-1-3.6-0.4-3.7c0.1,0,0.1,0,0.2,0   c0-0.2-0.1-0.2-0.1-0.5c-0.1-0.6-0.4-1.5-0.4-2c-0.1-1.2,0.2-4.6,0.9-5.7c0.7-1.1,1.8-2.1,3.3-2.4c1.3-0.3,5.3-0.6,6.6,0   c0.4,0.2,0.9,0.5,1.5,0.8c0.9,0.5,1.7,1.3,2.2,2c0.7,1.1,0.9,4.2,0.8,5.4c0,0.9-0.3,2.2-0.4,2.7c0.2-0.1,0.3-0.2,0.5-0.2   c0.6,0,0,2.2-0.4,3.7c-0.4,1.5-0.9,1.6-1.1,1.9c-0.2,0.3-0.3,1.6-0.7,2.1c-0.1,0.1-0.2,0.2-0.3,0.3l-0.1,1.3c0,0.7,0.1,0.1,0.2,0.3   c0,0.1,0.3,1.1,0.5,1.6c0.1,0.2,0,0.3,0.2,0.2l0,0l0,0l0,0l0,0l0,0l0,0c0.2-0.1,0.3,0.1,0.5,0.3v0l0,0l0,0l0,0c0,0,0,0.1,0.1,0.1   l0,0l0,0c0.4,0.5,1.4,1.3,2.6,1.8v0c0.1,0,0.2,0.1,0.3,0.1l6.7,2.7c1.4,0.6,2.6,0.6,2.6,2.3L40,40z"/>
</g>
</svg>