<?xml version="1.0" encoding="utf-8"?>
<!-- Generator: Adobe Illustrator 19.0.0, SVG Export Plug-In . SVG Version: 6.00 Build 0)  -->
<svg version="1.1" id="Layer_1" xmlns="http://www.w3.org/2000/svg" xmlns:xlink="http://www.w3.org/1999/xlink" x="0px" y="0px"
	 viewBox="0 0 24 24" style="enable-background:new 0 0 24 24;" xml:space="preserve">
<g id="XMLID_746_">
	<path id="XMLID_751_" d="M20,11h-2c-0.553,0-1,0.447-1,1s0.447,1,1,1h2c0.553,0,1-0.447,1-1S20.553,11,20,11z"/>
	<path id="XMLID_817_" d="M7,12c0-0.553-0.447-1-1-1H4c-0.553,0-1,0.447-1,1s0.447,1,1,1h2C6.553,13,7,12.553,7,12z"/>
	<path id="XMLID_819_" d="M12,17c-0.553,0-1,0.447-1,1v2c0,0.553,0.447,1,1,1s1-0.447,1-1v-2C13,17.447,12.553,17,12,17z"/>
	<path id="XMLID_820_" d="M12,7c0.553,0,1-0.447,1-1V4c0-0.553-0.447-1-1-1s-1,0.447-1,1v2C11,6.553,11.447,7,12,7z"/>
	<circle id="XMLID_821_" cx="12" cy="12" r="4"/>
	<path id="XMLID_822_" d="M16.242,8.758c0.256,0,0.512-0.098,0.707-0.293l1.415-1.415c0.391-0.391,0.391-1.023,0-1.414
		s-1.023-0.391-1.414,0l-1.415,1.415c-0.391,0.391-0.391,1.023,0,1.414C15.73,8.66,15.986,8.758,16.242,8.758z"/>
	<path id="XMLID_823_" d="M7.051,15.535L5.636,16.95c-0.391,0.391-0.391,1.023,0,1.414c0.195,0.195,0.451,0.293,0.707,0.293
		s0.512-0.098,0.707-0.293l1.415-1.415c0.391-0.391,0.391-1.023,0-1.414S7.441,15.145,7.051,15.535z"/>
	<path id="XMLID_824_" d="M16.949,15.535c-0.391-0.391-1.023-0.391-1.414,0s-0.391,1.023,0,1.414l1.415,1.415
		c0.195,0.195,0.451,0.293,0.707,0.293s0.512-0.098,0.707-0.293c0.391-0.391,0.391-1.023,0-1.414L16.949,15.535z"/>
	<path id="XMLID_825_" d="M7.051,8.465C7.246,8.66,7.502,8.758,7.758,8.758S8.27,8.66,8.465,8.465c0.391-0.391,0.391-1.023,0-1.414
		L7.05,5.636c-0.391-0.391-1.023-0.391-1.414,0s-0.391,1.023,0,1.414L7.051,8.465z"/>
</g>
</svg>
