<?xml version="1.0" encoding="utf-8"?>
<!-- Generator: Adobe Illustrator 19.0.0, SVG Export Plug-In . SVG Version: 6.00 Build 0)  -->
<svg version="1.1" id="Layer_1" xmlns="http://www.w3.org/2000/svg" xmlns:xlink="http://www.w3.org/1999/xlink" x="0px" y="0px"
	 viewBox="0 0 24 24" style="enable-background:new 0 0 24 24;" xml:space="preserve">
<g id="XMLID_486_">
	<path id="XMLID_485_" d="M11,8.01h-1c-0.553,0-1-0.447-1-1s0.447-1,1-1h1c0.553,0,1,0.447,1,1S11.553,8.01,11,8.01z"/>
</g>
<g id="XMLID_484_">
	<path id="XMLID_483_" d="M2,8.01H1c-0.553,0-1-0.447-1-1s0.447-1,1-1h1c0.553,0,1,0.447,1,1S2.553,8.01,2,8.01z"/>
</g>
<g id="XMLID_482_">
	<path id="XMLID_615_" d="M6,13.01c-0.553,0-1-0.447-1-1v-1c0-0.553,0.447-1,1-1s1,0.447,1,1v1C7,12.562,6.553,13.01,6,13.01z"/>
</g>
<g id="XMLID_480_">
	<path id="XMLID_616_" d="M6,4.01c-0.553,0-1-0.447-1-1v-1c0-0.553,0.447-1,1-1s1,0.447,1,1v1C7,3.562,6.553,4.01,6,4.01z"/>
</g>
<g id="XMLID_478_">
	<path id="XMLID_228_" d="M6,5.009c1.105,0,2,0.895,2,2s-0.895,2-2,2s-2-0.895-2-2S4.895,5.009,6,5.009z"/>
</g>
<g id="XMLID_476_">
	<path id="XMLID_225_" d="M11.918,19.991v-8.952L17.959,4.5L24,11.038v8.952H11.918z"/>
</g>
</svg>
