<svg xmlns="http://www.w3.org/2000/svg" viewBox="0 0 327.38812 78.859885">
  <path fill="#55B8F6" d="M20.28 45.867c0-10.86-2.55-12.235-6.414-12.235-3.727 0-6.997 2.157-9.68 4.646v20.54c2.03.72 4.383 1.242 7.39 1.242 5.105 0 8.704-1.767 8.704-14.193M4.186 15.902V29.25c0 2.88-.068 4.838-.068 5.035h.068c2.88-2.42 6.478-4.318 10.337-4.318 6.085 0 9.942 2.617 9.942 15.246 0 15.566-5.035 18.51-12.82 18.51-2.684 0-7.85-.718-11.645-2.288V15.902h4.186zm24.39 5.388c0-.714.26-1.33.78-1.85s1.142-.78 1.864-.78c.74 0 1.37.26 1.89.78.517.508.778 1.13.778 1.865 0 .738-.26 1.366-.778 1.884-.51.52-1.135.78-1.87.78-.735 0-1.365-.26-1.884-.78-.52-.52-.78-1.15-.78-1.9m.754 8.65h4.185l.005 33.19h-4.19V29.94zm29.236 32.44s-14.535 0-14.76 7.89c-.127 4.38 3.798 5.7 6.584 4.94 8.924-2.46 8.176-12.84 8.176-12.84m.034-27.5c-2.09-.72-4.383-1.25-7.064-1.25-4.577 0-9.03 1.89-9.03 12.3 0 7.91 3.93 11.64 11.45 8.5 1.964-.85 4.644-2.09 4.644-2.09V34.87zM48.544 58.29c-4.055-.032-10.222-2.55-10.222-12.36 0-11.384 5.233-15.964 13.02-15.964 3.464 0 7.653.655 11.452 2.226 0 0 .362 23.185-.367 30.87-1.02 10.785-5.9 13.866-11.925 15.332-4.195 1.022-10.337-2.182-10.105-8.065.453-11.7 18.283-10.56 18.283-10.56s.13-3.52.11-4.21c0 0-4.8 2.76-10.25 2.72"/>
  <path fill="#76c6f7" d="M138.71 75.572c-2.788.767-6.715-.558-6.59-4.938.224-7.892 14.763-7.892 14.763-7.892s.75 10.374-8.174 12.83m12.25-45.597h-4.18l-.03 21.81s-2.69 1.242-4.7 2.004c-7.63 2.88-11.18.25-11.4-7.62-.13-4.41-.1-13.79-.1-16.26h-4.09c-.028 2.69-.044 12.49-.008 16.25.093 9.86 6.164 12.23 10.22 12.36 4.11.13 10.25-2.73 10.25-2.73 0 .13.04 4.32.04 4.32s-17.83-1.14-18.283 10.56c-.23 5.88 5.594 8.78 10.105 8.06 6.49-1.04 10.93-4.54 11.924-15.33.132-1.45.152-1.04.27-5.06 0-.01.002-23.48-.048-28.39m-62.76 4.86c-2.03-.79-4.91-1.31-7.393-1.31-5.104 0-8.7 1.76-8.7 14.26 0 10.79 2.555 12.163 6.415 12.163 3.79 0 7.07-2.16 9.68-4.71v-20.4zm-7.98-4.98c3.33 0 6.145.78 7.98 1.506h.13s-.13-1.575-.13-5.3V15.79h4.185v47.235H88.7c0-.983-.26-3.86-.26-3.86h-.133c-2.94 2.483-6.54 4.444-10.466 4.444-6.08 0-9.94-2.62-9.94-15.25 0-15.57 5.305-18.52 12.3-18.52m20.966 18.13c0 10.85 2.555 12.23 6.41 12.23 3.796 0 7.065-2.16 9.68-4.65V35.09c-2.093-.787-4.38-1.312-7.393-1.312-5.233 0-8.696 1.767-8.696 14.2m8.7-17.86c3.408 0 7.857.784 11.58 2.29v23.75c0 3.86.985 4.77 4.78 3.726l.65 3.01c-1.105.393-2.352.652-3.99.652-3.464 0-4.51-1.9-5.03-4.32h-.2c-3.21 2.75-6.674 4.644-10.732 4.644-6.09 0-9.95-2.618-9.95-15.246 0-15.57 4.978-18.51 12.89-18.51"/>
  <path fill="#99d4f9" d="M156.3 30h3.73c.058 1.036.228 4.406.228 4.406h.13c2.75-2.485 5.887-4.38 9.486-4.38 3.138 0 6.278 1.24 7.72 5.034 2.68-2.88 6.145-5.035 9.813-5.035 3.99 0 7.758 1.306 8.635 9.55l3.222 23.527h-4.187l-2.637-23.137c-.798-5.34-2.063-6.588-5.593-6.39-3.125.176-8.562 5-8.562 5l.163 24.63h-4.298l-.022-23.17c0-4.78-2.03-6.346-5.04-6.346-3.14 0-6.15 2.16-8.57 4.64v24.86h-4.19L156.3 30zm94.605 4.996c-2.03-.786-4.91-1.307-7.4-1.307-5.097 0-8.697 1.76-8.697 14.25 0 10.8 2.553 12.17 6.412 12.17 3.793 0 7.063-2.17 9.685-4.72v-20.4zm-7.984-4.97c3.34 0 6.15.785 7.99 1.504V15.96h4.19v47.23h-3.66c0-.976-.26-3.854-.26-3.854h-.13c-2.94 2.483-6.54 4.445-10.47 4.445-6.08 0-9.94-2.61-9.94-15.24 0-15.56 5.3-18.51 12.3-18.51m32.6 16.22c4.4-2.17 4.49-3.98 4.07-7.16-.51-3.82-3.44-6.43-8.16-5.38-9.204 2.05-7.09 15.86-7.09 15.86s7.334-1.41 11.19-3.31m-5.012-15.98c6.23-1.21 12.26 2.36 12.76 8.14.473 5.48-.365 7.72-5.596 10.59-4.995 2.74-12.972 4.59-12.972 4.59s-.046 2.62 1.65 4.65c2.6 3.12 6.294 2.77 8.036 1.96 4.15-1.91 6.36-7.36 6.36-7.36l3.356-.75s-1.21 9.26-9.588 11.416c-7.146 1.84-14.215-2.14-14.84-14.425-.65-12.735 3.775-17.41 10.845-18.79M205.8 47.93c0 10.86 2.558 12.23 6.418 12.23 3.79 0 7.06-2.156 9.68-4.64V35.034c-2.096-.783-4.385-1.308-7.393-1.308-5.233 0-8.702 1.77-8.702 14.2m8.704-17.86c3.4 0 7.847.783 11.58 2.288V56.1c0 3.86.98 4.776 4.776 3.727l.652 3.013c-1.116.39-2.355.655-3.99.655-3.47 0-4.513-1.898-5.04-4.32h-.195c-3.208 2.748-6.672 4.646-10.73 4.646-6.085 0-9.942-2.61-9.942-15.24 0-15.57 4.974-18.51 12.89-18.51"/>
  <path fill="#55B8F6" d="M301.583.41c7.692 1.795 10.728 7.63 10.5 12.803-.715 16.418-19.772 28.722-19.772 28.722l-.11.078s-12.06-19.407-5.67-34.55c2.01-4.773 7.25-8.743 14.97-7.075l.09.022z"/>
  <path fill="#76c6f7" d="M327.388 45.035c-.174 6.214-4.182 9.478-8.205 10.124-12.766 2.04-25.262-10.69-25.262-10.69l-.08-.08s13.05-12.38 25.73-9.85c4 .79 7.89 4.2 7.82 10.41v.07z"/>
  <path fill="#99d4f9" d="M299.974 74.79c-5.15 1.4-8.828-1.084-10.355-4.233-4.86-9.986 2.51-23.413 2.51-23.413l.04-.083s13.4 7.65 14.47 18.7c.33 3.48-1.5 7.53-6.62 9.01l-.06.02z"/>
</svg>
