<svg xmlns="http://www.w3.org/2000/svg" viewBox="0 0 56 98.53">
  <g>
    <path d="M22.18,0.54c10.08,2.35,14.06,10,13.76,16.78C35,38.83,10,55,10,55l-0.15.1S-5.93,29.62,2.45,9.78C5.08,3.53,12-1.68,22.07.51Z" style="fill: #55B8F6"/>
    <path d="M56,59c-0.23,8.14-5.48,12.42-10.75,13.27-16.73,2.68-33.1-14-33.1-14l-0.1-.1S29.13,42,45.75,45.27C51,46.31,56.08,50.78,56,58.92V59Z" style="fill: #76c6f7"/>
    <path d="M20.07,98C13.33,99.84,8.51,96.59,6.5,92.46,0.15,79.37,9.8,61.78,9.8,61.78l0.06-.11s17.57,10,19,24.51c0.44,4.56-2,9.86-8.67,11.81Z" style="fill: #99d4f9"/>
  </g>
</svg>
